
<svg version="1.0" xmlns="http://www.w3.org/2000/svg"
 width="512.000000pt" height="512.000000pt" viewBox="0 0 512.000000 512.000000"
 preserveAspectRatio="xMidYMid meet">

<g transform="translate(0.000000,512.000000) scale(0.100000,-0.100000)"
fill="#000000" stroke="none">
<path d="M2505 4935 c-25 -24 -25 -26 -25 -215 0 -189 0 -191 25 -215 15 -16
36 -25 55 -25 19 0 40 9 55 25 25 24 25 26 25 215 0 189 0 191 -25 215 -15 16
-36 25 -55 25 -19 0 -40 -9 -55 -25z"/>
<path d="M1035 4325 c-16 -15 -25 -35 -25 -56 0 -28 17 -50 123 -157 134 -136
171 -161 215 -140 38 18 55 58 42 95 -13 32 -222 247 -262 269 -39 20 -66 17
-93 -11z"/>
<path d="M3869 4224 c-70 -70 -133 -139 -139 -155 -15 -35 4 -78 42 -97 44
-21 81 4 216 140 105 107 122 129 122 157 0 43 -38 81 -81 81 -28 0 -50 -17
-160 -126z"/>
<path d="M2357 4144 c-496 -77 -911 -419 -1076 -887 -55 -157 -74 -273 -75
-452 0 -177 14 -272 64 -424 36 -112 113 -264 181 -361 58 -82 194 -228 257
-275 37 -28 43 -41 148 -327 l109 -298 595 0 595 0 105 292 c88 246 109 295
134 317 274 232 439 504 503 828 26 132 23 377 -5 510 -68 315 -224 578 -458
772 -307 254 -696 365 -1077 305z"/>
<path d="M445 2868 c-51 -27 -60 -84 -20 -123 24 -25 26 -25 215 -25 189 0
191 0 215 25 16 15 25 36 25 55 0 19 -9 40 -25 55 -24 25 -26 25 -207 25 -113
0 -191 -5 -203 -12z"/>
<path d="M4265 2855 c-16 -15 -25 -36 -25 -55 0 -19 9 -40 25 -55 24 -25 26
-25 215 -25 189 0 191 0 215 25 16 15 25 36 25 55 0 19 -9 40 -25 55 -24 25
-26 25 -215 25 -189 0 -191 0 -215 -25z"/>
<path d="M2000 800 l0 -160 560 0 560 0 0 160 0 160 -560 0 -560 0 0 -160z"/>
<path d="M2105 330 c41 -82 83 -154 94 -160 27 -14 695 -14 722 0 11 6 53 78
94 160 l75 150 -530 0 -530 0 75 -150z"/>
</g>
</svg>
