<?xml version="1.0" standalone="no"?>
<!DOCTYPE svg PUBLIC "-//W3C//DTD SVG 20010904//EN"
 "http://www.w3.org/TR/2001/REC-SVG-20010904/DTD/svg10.dtd">
<svg version="1.0" xmlns="http://www.w3.org/2000/svg"
 width="512.000000pt" height="512.000000pt" viewBox="0 0 512.000000 512.000000"
 preserveAspectRatio="xMidYMid meet">

<g transform="translate(0.000000,512.000000) scale(0.100000,-0.100000)"
fill="#000000" stroke="none">
<path d="M2221 4663 l-332 -448 185 -3 186 -2 0 -750 0 -750 300 0 300 0 0
750 0 750 186 2 185 3 -332 448 c-182 246 -335 447 -339 447 -4 0 -157 -201
-339 -447z"/>
<path d="M458 3649 c-247 -182 -448 -335 -448 -339 0 -4 201 -157 448 -339
l447 -332 3 187 2 186 113 -3 c98 -4 119 -8 169 -32 64 -31 111 -80 142 -146
20 -43 21 -68 26 -369 l5 -323 90 157 c50 86 95 163 100 170 8 10 44 -7 165
-77 85 -50 175 -102 198 -116 l44 -25 -4 304 c-4 273 -7 311 -26 383 -87 318
-332 563 -647 646 -56 15 -124 23 -227 26 l-148 6 -2 184 -3 184 -447 -332z"/>
<path d="M4210 3796 l0 -186 -117 0 c-381 -1 -692 -192 -849 -523 -69 -147
-77 -197 -82 -535 l-4 -303 29 15 c15 8 105 60 198 115 130 76 172 96 180 86
6 -6 51 -83 100 -169 l90 -157 5 323 c5 301 6 326 26 369 31 66 78 115 142
146 50 24 71 28 169 32 l113 3 2 -187 3 -187 448 332 c246 183 447 336 447
340 0 6 -847 640 -887 664 -10 6 -13 -33 -13 -178z"/>
<path d="M2260 2233 l-1 -178 -83 -38 c-45 -21 -108 -58 -140 -82 l-57 -42
-152 87 c-84 49 -155 85 -159 82 -3 -4 -72 -121 -152 -259 l-145 -253 72 -41
c253 -146 233 -131 227 -169 -3 -19 -5 -78 -5 -130 0 -52 2 -111 5 -130 6 -38
26 -23 -227 -169 l-72 -41 145 -253 c80 -138 149 -255 152 -259 4 -3 75 33
159 82 l152 87 57 -42 c32 -24 95 -61 140 -82 l83 -38 1 -182 0 -183 300 0
300 0 0 185 c0 126 3 185 11 185 20 0 153 71 214 114 l60 43 150 -88 c83 -48
153 -84 157 -81 3 4 72 121 152 259 l145 253 -92 53 c-51 30 -119 70 -152 89
-58 33 -60 36 -55 69 3 19 5 77 5 129 0 52 -2 110 -5 129 -5 33 -3 36 55 69
33 19 101 59 152 89 l92 53 -145 253 c-80 138 -149 255 -152 259 -4 3 -74 -33
-157 -81 l-150 -88 -60 43 c-61 43 -194 114 -214 114 -8 0 -11 58 -11 180 l0
180 -300 0 -300 0 0 -177z m392 -584 c87 -18 158 -58 223 -123 258 -259 118
-696 -244 -758 -141 -24 -280 21 -386 127 -178 176 -178 455 0 630 113 112
257 155 407 124z"/>
<path d="M2488 1339 c-43 -22 -78 -81 -78 -129 0 -50 35 -107 80 -130 21 -11
53 -20 70 -20 50 0 107 35 130 80 11 21 20 53 20 70 0 50 -35 107 -80 130 -49
25 -94 25 -142 -1z"/>
</g>
</svg>
