<?xml version="1.0" encoding="UTF-8" standalone="no"?>
<!DOCTYPE svg PUBLIC "-//W3C//DTD SVG 1.1//EN" "http://www.w3.org/Graphics/SVG/1.1/DTD/svg11.dtd">
<svg xmlns="http://www.w3.org/2000/svg" version="1.1" viewBox="0.00 0.00 1000.00 1000.00">
<g stroke-width="2.00" fill="none" stroke-linecap="butt">
<path stroke="#8a8a8a" vector-effect="non-scaling-stroke" d="
  M 706.03 387.53
  Q 703.82 377.85 699.66 366.27
  A 0.55 0.55 0.0 0 0 698.77 366.05
  L 627.92 428.96
  A 1.17 1.16 71.4 0 0 627.52 429.77
  Q 625.85 457.40 608.88 478.17
  C 595.56 494.48 576.35 505.31 555.32 507.70
  C 495.04 514.56 449.72 455.10 469.15 398.61
  C 489.41 339.72 565.31 323.88 606.88 370.81
  A 0.51 0.51 0.0 0 0 607.60 370.85
  L 694.54 293.27
  A 0.56 0.56 0.0 0 0 694.56 292.45
  Q 684.50 282.38 674.77 272.51
  C 666.27 263.89 653.16 264.20 644.69 272.76
  Q 639.03 278.48 633.33 284.33
  A 0.75 0.74 -52.1 0 1 632.40 284.45
  Q 609.31 269.98 583.80 263.99
  Q 583.17 263.84 583.17 263.19
  Q 583.16 255.04 583.15 246.69
  C 583.12 234.42 574.07 225.21 561.77 225.26
  Q 546.88 225.32 532.13 225.19
  Q 527.35 225.15 523.69 226.17
  C 517.31 227.95 511.83 233.58 509.99 239.81
  Q 508.80 243.80 508.93 249.35
  Q 509.10 256.40 508.93 263.50
  A 0.45 0.45 0.0 0 1 508.59 263.92
  Q 482.50 270.10 459.76 284.46
  A 0.77 0.77 0.0 0 1 458.81 284.35
  Q 454.20 279.67 449.12 274.41
  Q 444.28 269.39 440.08 267.70
  C 432.31 264.57 423.39 266.40 417.43 272.41
  Q 407.47 282.47 395.47 294.48
  C 390.93 299.02 388.31 303.97 388.26 310.44
  C 388.21 318.26 391.68 323.22 397.48 328.73
  Q 402.13 333.15 406.23 337.54
  Q 406.61 337.94 406.32 338.40
  Q 391.95 361.77 386.03 387.64
  Q 385.91 388.18 385.35 388.19
  Q 377.32 388.30 369.85 388.16
  C 356.34 387.89 347.58 397.47 347.70 410.64
  Q 347.83 425.79 347.72 441.19
  Q 347.72 441.63 348.15 441.69
  Q 374.22 445.22 399.59 454.48
  Q 428.90 465.17 455.98 479.54
  Q 476.90 490.63 497.23 501.79
  Q 519.21 513.85 540.80 521.11
  Q 560.91 527.86 579.56 528.53
  Q 591.06 528.95 609.25 525.47
  Q 616.71 524.04 642.01 521.12
  C 659.04 519.15 676.67 518.67 693.48 522.59
  Q 695.20 522.99 693.95 521.74
  L 685.68 513.54
  Q 685.45 513.31 685.62 513.04
  Q 700.06 489.58 705.99 464.11
  Q 706.14 463.47 706.81 463.46
  Q 714.00 463.45 721.20 463.53
  Q 730.00 463.63 735.60 459.42
  C 742.64 454.12 744.56 447.56 744.40 438.76
  Q 744.15 425.03 744.40 410.62
  C 744.64 397.08 735.43 387.86 721.82 388.14
  Q 713.88 388.30 706.85 388.19
  Q 706.18 388.18 706.03 387.53"
/>
<path stroke="#8a8a8a" vector-effect="non-scaling-stroke" d="
  M 560.73 427.78
  A 0.39 0.39 0.0 0 1 560.18 427.75
  Q 544.32 409.52 527.21 389.31
  Q 524.54 386.15 521.89 384.38
  C 516.91 381.06 509.88 380.87 504.63 383.84
  C 497.12 388.10 494.10 397.26 496.91 405.23
  Q 498.06 408.49 503.93 415.23
  Q 525.22 439.66 543.82 461.75
  Q 548.14 466.88 551.58 468.51
  C 557.53 471.32 565.75 470.62 570.54 465.63
  Q 571.83 464.29 573.22 463.05
  Q 669.57 376.94 766.39 290.64
  C 772.07 285.57 775.58 280.75 774.62 273.00
  C 773.22 261.66 762.29 254.76 751.45 258.62
  Q 749.09 259.46 741.30 266.42
  Q 650.90 347.31 560.73 427.78"
/>
<path stroke="#8a8a8a" vector-effect="non-scaling-stroke" d="
  M 201.43 469.80
  A 36.30 36.30 0.0 0 0 165.13 433.50
  L 86.27 433.50
  A 36.30 36.30 0.0 0 0 49.97 469.80
  L 49.97 679.92
  A 36.30 36.30 0.0 0 0 86.27 716.22
  L 165.13 716.22
  A 36.30 36.30 0.0 0 0 201.43 679.92
  L 201.43 469.80"
/>
<path stroke="#8a8a8a" vector-effect="non-scaling-stroke" d="
  M 400.15 573.44
  C 426.46 581.09 454.35 589.52 482.36 597.14
  C 501.92 602.45 521.79 607.61 541.54 610.60
  Q 566.92 614.44 590.69 610.92
  C 610.86 607.93 630.76 601.75 650.25 594.95
  Q 683.41 583.39 726.19 567.60
  A 0.57 0.56 -18.8 0 0 726.54 566.91
  C 718.57 539.97 697.54 531.31 671.16 531.13
  Q 656.49 531.03 643.00 532.51
  C 630.84 533.85 618.52 535.33 606.25 537.83
  C 577.82 543.60 549.92 537.82 522.97 526.08
  Q 507.31 519.26 495.71 513.07
  Q 465.84 497.11 443.01 485.20
  C 416.14 471.19 385.73 459.04 356.01 453.91
  Q 292.75 442.99 240.36 477.59
  Q 234.96 481.15 230.42 484.49
  A 1.11 1.06 -63.1 0 1 229.80 484.71
  L 213.03 485.49
  Q 212.73 485.51 212.73 485.80
  L 212.73 674.48
  Q 212.73 675.06 213.31 675.07
  Q 248.16 675.64 280.56 688.22
  Q 307.33 698.61 333.60 711.94
  Q 349.30 719.91 366.26 728.09
  Q 399.51 744.15 434.25 755.98
  C 493.52 776.17 559.19 784.50 617.92 757.59
  Q 624.30 754.67 635.61 748.25
  Q 688.54 718.20 724.37 700.36
  Q 770.74 677.28 816.97 654.36
  C 851.38 637.30 885.39 618.79 919.59 598.91
  C 933.48 590.84 953.73 573.82 949.45 555.07
  C 945.55 537.95 923.61 529.56 908.34 526.90
  C 878.23 521.66 845.66 528.28 818.92 542.23
  Q 810.82 546.45 802.65 550.98
  C 783.39 561.63 758.07 570.78 737.47 580.10
  Q 729.69 583.62 721.92 586.17
  Q 681.71 599.34 629.34 617.10
  Q 613.19 622.58 596.13 626.87
  C 581.23 630.61 566.25 632.70 551.55 631.14
  Q 535.06 629.39 518.65 623.76
  Q 497.60 616.53 478.01 607.94
  Q 437.88 590.35 400.02 573.81
  A 0.20 0.20 0.0 0 1 400.15 573.44"
/>
</g>
<path fill="#ffffff" d="
  M 0.00 0.00
  L 1000.00 0.00
  L 1000.00 1000.00
  L 0.00 1000.00
  L 0.00 0.00
  Z
  M 706.03 387.53
  Q 703.82 377.85 699.66 366.27
  A 0.55 0.55 0.0 0 0 698.77 366.05
  L 627.92 428.96
  A 1.17 1.16 71.4 0 0 627.52 429.77
  Q 625.85 457.40 608.88 478.17
  C 595.56 494.48 576.35 505.31 555.32 507.70
  C 495.04 514.56 449.72 455.10 469.15 398.61
  C 489.41 339.72 565.31 323.88 606.88 370.81
  A 0.51 0.51 0.0 0 0 607.60 370.85
  L 694.54 293.27
  A 0.56 0.56 0.0 0 0 694.56 292.45
  Q 684.50 282.38 674.77 272.51
  C 666.27 263.89 653.16 264.20 644.69 272.76
  Q 639.03 278.48 633.33 284.33
  A 0.75 0.74 -52.1 0 1 632.40 284.45
  Q 609.31 269.98 583.80 263.99
  Q 583.17 263.84 583.17 263.19
  Q 583.16 255.04 583.15 246.69
  C 583.12 234.42 574.07 225.21 561.77 225.26
  Q 546.88 225.32 532.13 225.19
  Q 527.35 225.15 523.69 226.17
  C 517.31 227.95 511.83 233.58 509.99 239.81
  Q 508.80 243.80 508.93 249.35
  Q 509.10 256.40 508.93 263.50
  A 0.45 0.45 0.0 0 1 508.59 263.92
  Q 482.50 270.10 459.76 284.46
  A 0.77 0.77 0.0 0 1 458.81 284.35
  Q 454.20 279.67 449.12 274.41
  Q 444.28 269.39 440.08 267.70
  C 432.31 264.57 423.39 266.40 417.43 272.41
  Q 407.47 282.47 395.47 294.48
  C 390.93 299.02 388.31 303.97 388.26 310.44
  C 388.21 318.26 391.68 323.22 397.48 328.73
  Q 402.13 333.15 406.23 337.54
  Q 406.61 337.94 406.32 338.40
  Q 391.95 361.77 386.03 387.64
  Q 385.91 388.18 385.35 388.19
  Q 377.32 388.30 369.85 388.16
  C 356.34 387.89 347.58 397.47 347.70 410.64
  Q 347.83 425.79 347.72 441.19
  Q 347.72 441.63 348.15 441.69
  Q 374.22 445.22 399.59 454.48
  Q 428.90 465.17 455.98 479.54
  Q 476.90 490.63 497.23 501.79
  Q 519.21 513.85 540.80 521.11
  Q 560.91 527.86 579.56 528.53
  Q 591.06 528.95 609.25 525.47
  Q 616.71 524.04 642.01 521.12
  C 659.04 519.15 676.67 518.67 693.48 522.59
  Q 695.20 522.99 693.95 521.74
  L 685.68 513.54
  Q 685.45 513.31 685.62 513.04
  Q 700.06 489.58 705.99 464.11
  Q 706.14 463.47 706.81 463.46
  Q 714.00 463.45 721.20 463.53
  Q 730.00 463.63 735.60 459.42
  C 742.64 454.12 744.56 447.56 744.40 438.76
  Q 744.15 425.03 744.40 410.62
  C 744.64 397.08 735.43 387.86 721.82 388.14
  Q 713.88 388.30 706.85 388.19
  Q 706.18 388.18 706.03 387.53
  Z
  M 560.73 427.78
  A 0.39 0.39 0.0 0 1 560.18 427.75
  Q 544.32 409.52 527.21 389.31
  Q 524.54 386.15 521.89 384.38
  C 516.91 381.06 509.88 380.87 504.63 383.84
  C 497.12 388.10 494.10 397.26 496.91 405.23
  Q 498.06 408.49 503.93 415.23
  Q 525.22 439.66 543.82 461.75
  Q 548.14 466.88 551.58 468.51
  C 557.53 471.32 565.75 470.62 570.54 465.63
  Q 571.83 464.29 573.22 463.05
  Q 669.57 376.94 766.39 290.64
  C 772.07 285.57 775.58 280.75 774.62 273.00
  C 773.22 261.66 762.29 254.76 751.45 258.62
  Q 749.09 259.46 741.30 266.42
  Q 650.90 347.31 560.73 427.78
  Z
  M 201.43 469.80
  A 36.30 36.30 0.0 0 0 165.13 433.50
  L 86.27 433.50
  A 36.30 36.30 0.0 0 0 49.97 469.80
  L 49.97 679.92
  A 36.30 36.30 0.0 0 0 86.27 716.22
  L 165.13 716.22
  A 36.30 36.30 0.0 0 0 201.43 679.92
  L 201.43 469.80
  Z
  M 400.15 573.44
  C 426.46 581.09 454.35 589.52 482.36 597.14
  C 501.92 602.45 521.79 607.61 541.54 610.60
  Q 566.92 614.44 590.69 610.92
  C 610.86 607.93 630.76 601.75 650.25 594.95
  Q 683.41 583.39 726.19 567.60
  A 0.57 0.56 -18.8 0 0 726.54 566.91
  C 718.57 539.97 697.54 531.31 671.16 531.13
  Q 656.49 531.03 643.00 532.51
  C 630.84 533.85 618.52 535.33 606.25 537.83
  C 577.82 543.60 549.92 537.82 522.97 526.08
  Q 507.31 519.26 495.71 513.07
  Q 465.84 497.11 443.01 485.20
  C 416.14 471.19 385.73 459.04 356.01 453.91
  Q 292.75 442.99 240.36 477.59
  Q 234.96 481.15 230.42 484.49
  A 1.11 1.06 -63.1 0 1 229.80 484.71
  L 213.03 485.49
  Q 212.73 485.51 212.73 485.80
  L 212.73 674.48
  Q 212.73 675.06 213.31 675.07
  Q 248.16 675.64 280.56 688.22
  Q 307.33 698.61 333.60 711.94
  Q 349.30 719.91 366.26 728.09
  Q 399.51 744.15 434.25 755.98
  C 493.52 776.17 559.19 784.50 617.92 757.59
  Q 624.30 754.67 635.61 748.25
  Q 688.54 718.20 724.37 700.36
  Q 770.74 677.28 816.97 654.36
  C 851.38 637.30 885.39 618.79 919.59 598.91
  C 933.48 590.84 953.73 573.82 949.45 555.07
  C 945.55 537.95 923.61 529.56 908.34 526.90
  C 878.23 521.66 845.66 528.28 818.92 542.23
  Q 810.82 546.45 802.65 550.98
  C 783.39 561.63 758.07 570.78 737.47 580.10
  Q 729.69 583.62 721.92 586.17
  Q 681.71 599.34 629.34 617.10
  Q 613.19 622.58 596.13 626.87
  C 581.23 630.61 566.25 632.70 551.55 631.14
  Q 535.06 629.39 518.65 623.76
  Q 497.60 616.53 478.01 607.94
  Q 437.88 590.35 400.02 573.81
  A 0.20 0.20 0.0 0 1 400.15 573.44
  Z"
/>
<path fill="#141414" d="
  M 706.85 388.19
  Q 713.88 388.30 721.82 388.14
  C 735.43 387.86 744.64 397.08 744.40 410.62
  Q 744.15 425.03 744.40 438.76
  C 744.56 447.56 742.64 454.12 735.60 459.42
  Q 730.00 463.63 721.20 463.53
  Q 714.00 463.45 706.81 463.46
  Q 706.14 463.47 705.99 464.11
  Q 700.06 489.58 685.62 513.04
  Q 685.45 513.31 685.68 513.54
  L 693.95 521.74
  Q 695.20 522.99 693.48 522.59
  C 676.67 518.67 659.04 519.15 642.01 521.12
  Q 616.71 524.04 609.25 525.47
  Q 591.06 528.95 579.56 528.53
  Q 560.91 527.86 540.80 521.11
  Q 519.21 513.85 497.23 501.79
  Q 476.90 490.63 455.98 479.54
  Q 428.90 465.17 399.59 454.48
  Q 374.22 445.22 348.15 441.69
  Q 347.72 441.63 347.72 441.19
  Q 347.83 425.79 347.70 410.64
  C 347.58 397.47 356.34 387.89 369.85 388.16
  Q 377.32 388.30 385.35 388.19
  Q 385.91 388.18 386.03 387.64
  Q 391.95 361.77 406.32 338.40
  Q 406.61 337.94 406.23 337.54
  Q 402.13 333.15 397.48 328.73
  C 391.68 323.22 388.21 318.26 388.26 310.44
  C 388.31 303.97 390.93 299.02 395.47 294.48
  Q 407.47 282.47 417.43 272.41
  C 423.39 266.40 432.31 264.57 440.08 267.70
  Q 444.28 269.39 449.12 274.41
  Q 454.20 279.67 458.81 284.35
  A 0.77 0.77 0.0 0 0 459.76 284.46
  Q 482.50 270.10 508.59 263.92
  A 0.45 0.45 0.0 0 0 508.93 263.50
  Q 509.10 256.40 508.93 249.35
  Q 508.80 243.80 509.99 239.81
  C 511.83 233.58 517.31 227.95 523.69 226.17
  Q 527.35 225.15 532.13 225.19
  Q 546.88 225.32 561.77 225.26
  C 574.07 225.21 583.12 234.42 583.15 246.69
  Q 583.16 255.04 583.17 263.19
  Q 583.17 263.84 583.80 263.99
  Q 609.31 269.98 632.40 284.45
  A 0.75 0.74 -52.1 0 0 633.33 284.33
  Q 639.03 278.48 644.69 272.76
  C 653.16 264.20 666.27 263.89 674.77 272.51
  Q 684.50 282.38 694.56 292.45
  A 0.56 0.56 0.0 0 1 694.54 293.27
  L 607.60 370.85
  A 0.51 0.51 0.0 0 1 606.88 370.81
  C 565.31 323.88 489.41 339.72 469.15 398.61
  C 449.72 455.10 495.04 514.56 555.32 507.70
  C 576.35 505.31 595.56 494.48 608.88 478.17
  Q 625.85 457.40 627.52 429.77
  A 1.17 1.16 71.4 0 1 627.92 428.96
  L 698.77 366.05
  A 0.55 0.55 0.0 0 1 699.66 366.27
  Q 703.82 377.85 706.03 387.53
  Q 706.18 388.18 706.85 388.19
  Z"
/>
<path fill="#141414" d="
  M 560.73 427.78
  Q 650.90 347.31 741.30 266.42
  Q 749.09 259.46 751.45 258.62
  C 762.29 254.76 773.22 261.66 774.62 273.00
  C 775.58 280.75 772.07 285.57 766.39 290.64
  Q 669.57 376.94 573.22 463.05
  Q 571.83 464.29 570.54 465.63
  C 565.75 470.62 557.53 471.32 551.58 468.51
  Q 548.14 466.88 543.82 461.75
  Q 525.22 439.66 503.93 415.23
  Q 498.06 408.49 496.91 405.23
  C 494.10 397.26 497.12 388.10 504.63 383.84
  C 509.88 380.87 516.91 381.06 521.89 384.38
  Q 524.54 386.15 527.21 389.31
  Q 544.32 409.52 560.18 427.75
  A 0.39 0.39 0.0 0 0 560.73 427.78
  Z"
/>
<rect fill="#141414" x="49.97" y="433.50" width="151.46" height="282.72" rx="36.30"/>
<path fill="#141414" d="
  M 400.02 573.81
  Q 437.88 590.35 478.01 607.94
  Q 497.60 616.53 518.65 623.76
  Q 535.06 629.39 551.55 631.14
  C 566.25 632.70 581.23 630.61 596.13 626.87
  Q 613.19 622.58 629.34 617.10
  Q 681.71 599.34 721.92 586.17
  Q 729.69 583.62 737.47 580.10
  C 758.07 570.78 783.39 561.63 802.65 550.98
  Q 810.82 546.45 818.92 542.23
  C 845.66 528.28 878.23 521.66 908.34 526.90
  C 923.61 529.56 945.55 537.95 949.45 555.07
  C 953.73 573.82 933.48 590.84 919.59 598.91
  C 885.39 618.79 851.38 637.30 816.97 654.36
  Q 770.74 677.28 724.37 700.36
  Q 688.54 718.20 635.61 748.25
  Q 624.30 754.67 617.92 757.59
  C 559.19 784.50 493.52 776.17 434.25 755.98
  Q 399.51 744.15 366.26 728.09
  Q 349.30 719.91 333.60 711.94
  Q 307.33 698.61 280.56 688.22
  Q 248.16 675.64 213.31 675.07
  Q 212.73 675.06 212.73 674.48
  L 212.73 485.80
  Q 212.73 485.51 213.03 485.49
  L 229.80 484.71
  A 1.11 1.06 -63.1 0 0 230.42 484.49
  Q 234.96 481.15 240.36 477.59
  Q 292.75 442.99 356.01 453.91
  C 385.73 459.04 416.14 471.19 443.01 485.20
  Q 465.84 497.11 495.71 513.07
  Q 507.31 519.26 522.97 526.08
  C 549.92 537.82 577.82 543.60 606.25 537.83
  C 618.52 535.33 630.84 533.85 643.00 532.51
  Q 656.49 531.03 671.16 531.13
  C 697.54 531.31 718.57 539.97 726.54 566.91
  A 0.57 0.56 -18.8 0 1 726.19 567.60
  Q 683.41 583.39 650.25 594.95
  C 630.76 601.75 610.86 607.93 590.69 610.92
  Q 566.92 614.44 541.54 610.60
  C 521.79 607.61 501.92 602.45 482.36 597.14
  C 454.35 589.52 426.46 581.09 400.15 573.44
  A 0.20 0.20 0.0 0 0 400.02 573.81
  Z"
/>
</svg>
