<?xml version="1.0" standalone="no"?>
<!DOCTYPE svg PUBLIC "-//W3C//DTD SVG 20010904//EN"
 "http://www.w3.org/TR/2001/REC-SVG-20010904/DTD/svg10.dtd">
<svg version="1.0" xmlns="http://www.w3.org/2000/svg"
 width="512.000000pt" height="512.000000pt" viewBox="0 0 512.000000 512.000000"
 preserveAspectRatio="xMidYMid meet">

<g transform="translate(0.000000,512.000000) scale(0.100000,-0.100000)"
fill="#000000" stroke="none">
<path d="M1685 4186 c-323 -62 -545 -334 -545 -669 0 -399 364 -720 757 -667
161 21 284 81 398 195 114 114 175 241 196 408 27 204 -65 442 -223 582 -61
53 -186 118 -273 140 -84 22 -226 27 -310 11z m485 -411 c14 -15 23 -37 23
-56 0 -26 -28 -59 -219 -250 -120 -121 -229 -222 -240 -225 -35 -9 -73 18
-186 134 -94 95 -108 113 -108 142 0 46 33 80 78 80 30 0 46 -11 118 -82 l84
-82 183 182 c156 155 188 182 213 182 20 0 39 -9 54 -25z"/>
<path d="M464 3586 c-51 -22 -100 -73 -123 -126 l-21 -50 2 -982 c3 -915 4
-985 21 -1015 29 -54 87 -102 140 -118 87 -26 87 -25 87 58 0 164 62 311 179
428 118 118 262 179 421 179 277 0 528 -203 585 -475 8 -38 15 -100 15 -137
l0 -68 714 0 715 0 28 24 28 24 3 1019 c2 720 0 1033 -8 1070 -15 71 -57 125
-121 157 -52 26 -56 26 -263 26 l-211 0 -1 -98 c-5 -385 -286 -721 -669 -803
-78 -16 -254 -16 -330 0 -398 87 -675 421 -675 816 l0 85 -242 0 c-180 -1
-251 -4 -274 -14z"/>
<path d="M3420 2317 c0 -569 -4 -986 -9 -1005 l-10 -32 53 0 53 0 5 103 c10
210 112 385 284 490 108 65 172 82 314 81 109 0 134 -4 192 -26 102 -38 174
-86 243 -160 95 -103 144 -214 161 -367 l7 -64 33 35 c18 20 37 53 43 75 7 23
11 171 11 390 l0 352 -452 3 -453 3 -58 27 c-80 38 -161 117 -200 197 l-32 66
-3 403 -3 402 -90 0 -89 0 0 -973z"/>
<path d="M3760 2912 l0 -378 26 -53 c29 -58 84 -104 143 -122 23 -6 181 -9
439 -7 l402 3 -297 445 c-209 312 -308 452 -332 468 -32 21 -44 22 -207 22
l-174 0 0 -378z"/>
<path d="M1053 1785 c-121 -33 -212 -107 -267 -216 -139 -278 16 -591 319
-641 83 -14 177 1 264 42 292 139 315 584 40 761 -98 63 -242 84 -356 54z"/>
<path d="M3993 1785 c-171 -48 -285 -176 -314 -353 -16 -95 -1 -184 46 -278
112 -228 412 -301 634 -153 74 50 126 118 158 211 22 63 25 85 21 168 -7 150
-63 261 -170 337 -98 70 -262 100 -375 68z"/>
</g>
</svg>
